<?xml version="1.0" encoding="UTF-8"?>
<!DOCTYPE svg PUBLIC "-//W3C//DTD SVG 1.1//EN" "http://www.w3.org/Graphics/SVG/1.1/DTD/svg11.dtd">
<svg xmlns="http://www.w3.org/2000/svg" version="1.1" width="677px" height="369px" style="shape-rendering:geometricPrecision; text-rendering:geometricPrecision; image-rendering:optimizeQuality; fill-rule:evenodd; clip-rule:evenodd" xmlns:xlink="http://www.w3.org/1999/xlink">
<g><path style="opacity:1" fill="#071931" d="M 376.5,89.5 C 376.5,89.8333 376.5,90.1667 376.5,90.5C 374.893,90.1776 373.226,90.6776 371.5,92C 373.635,92.7589 374.968,94.2589 375.5,96.5C 373.667,102.834 371.833,109.167 370,115.5C 368.443,114.795 367.277,115.461 366.5,117.5C 362.763,118.786 359.263,120.453 356,122.5C 354.881,121.448 354.381,120.281 354.5,119C 356.932,116.989 356.432,115.489 353,114.5C 351.72,114.613 350.887,115.28 350.5,116.5C 351.246,117.736 351.579,119.07 351.5,120.5C 349.4,120.477 347.567,121.144 346,122.5C 345.055,122.095 344.388,121.428 344,120.5C 336.078,122.125 327.911,123.125 319.5,123.5C 320.506,124.396 320.506,125.062 319.5,125.5C 317.224,123.051 314.558,121.218 311.5,120C 319.03,116.223 327.03,114.723 335.5,115.5C 335.5,114.5 335.5,113.5 335.5,112.5C 330.742,112.574 326.076,111.908 321.5,110.5C 322.167,109.833 322.833,109.167 323.5,108.5C 321.663,105.023 319.496,105.023 317,108.5C 314.936,107.409 312.769,107.242 310.5,108C 311.738,108.69 311.738,109.19 310.5,109.5C 309.778,109.082 309.278,108.416 309,107.5C 308.667,108.167 308.333,108.833 308,109.5C 307.5,108.333 306.667,107.5 305.5,107C 307.303,106.363 308.636,105.197 309.5,103.5C 311.684,104.108 313.684,103.441 315.5,101.5C 316.682,103.645 318.182,103.645 320,101.5C 322.734,104.293 323.734,103.959 323,100.5C 323.833,101.5 324.667,102.5 325.5,103.5C 326.5,102.167 327.5,102.167 328.5,103.5C 329.853,101.817 331.52,100.484 333.5,99.5C 334.086,99.7093 334.586,100.043 335,100.5C 335.29,98.9559 335.956,97.6226 337,96.5C 337.583,98.0016 338.416,99.3349 339.5,100.5C 340.968,96.9671 343.301,94.1338 346.5,92C 349.731,92.8214 352.731,92.1548 355.5,90C 352.951,89.2486 351.284,87.582 350.5,85C 354.642,86.2796 358.975,87.1129 363.5,87.5C 363.343,86.1266 363.51,84.7932 364,83.5C 364.631,84.8719 365.298,86.2052 366,87.5C 368.238,84.8498 370.071,85.1831 371.5,88.5C 373.192,87.7992 374.858,88.1325 376.5,89.5 Z"/></g>
<g><path style="opacity:1" fill="#a2a2a9" d="M 295.5,101.5 C 296.708,100.218 298.042,100.218 299.5,101.5C 298.757,102.182 298.091,102.849 297.5,103.5C 296.833,102.833 296.167,102.167 295.5,101.5 Z"/></g>
<g><path style="opacity:1" fill="#131f2e" d="M 376.5,89.5 C 374.858,88.1325 373.192,87.7992 371.5,88.5C 370.071,85.1831 368.238,84.8498 366,87.5C 365.298,86.2052 364.631,84.8719 364,83.5C 363.51,84.7932 363.343,86.1266 363.5,87.5C 358.975,87.1129 354.642,86.2796 350.5,85C 351.284,87.582 352.951,89.2486 355.5,90C 352.731,92.1548 349.731,92.8214 346.5,92C 343.301,94.1338 340.968,96.9671 339.5,100.5C 338.416,99.3349 337.583,98.0016 337,96.5C 335.956,97.6226 335.29,98.9559 335,100.5C 334.586,100.043 334.086,99.7093 333.5,99.5C 331.52,100.484 329.853,101.817 328.5,103.5C 327.5,102.167 326.5,102.167 325.5,103.5C 324.667,102.5 323.833,101.5 323,100.5C 323.734,103.959 322.734,104.293 320,101.5C 318.182,103.645 316.682,103.645 315.5,101.5C 313.684,103.441 311.684,104.108 309.5,103.5C 308.636,105.197 307.303,106.363 305.5,107C 306.667,107.5 307.5,108.333 308,109.5C 308.333,108.833 308.667,108.167 309,107.5C 309.278,108.416 309.778,109.082 310.5,109.5C 311.68,114.88 309.514,118.546 304,120.5C 303.517,121.448 303.351,122.448 303.5,123.5C 297.694,122.764 297.027,124.431 301.5,128.5C 299.782,131.014 297.449,131.847 294.5,131C 293.663,129.989 293.33,128.822 293.5,127.5C 291.799,127.034 290.299,127.034 289,127.5C 288.138,125.913 287.471,124.246 287,122.5C 286.683,124.301 286.016,124.634 285,123.5C 285.435,126.992 287.268,129.826 290.5,132C 289.101,132.595 287.768,132.428 286.5,131.5C 283.833,133.043 282.833,135.043 283.5,137.5C 281.428,142.073 281.428,146.407 283.5,150.5C 283.392,151.442 283.059,152.275 282.5,153C 283.833,153.333 285.167,153.667 286.5,154C 285.833,154.333 285.167,154.667 284.5,155C 285.833,155.667 285.833,156.333 284.5,157C 285.167,157.333 285.833,157.667 286.5,158C 284.582,159.77 284.082,161.937 285,164.5C 287.263,166.591 289.93,167.924 293,168.5C 294.03,168.164 294.53,167.497 294.5,166.5C 295.87,170.429 297.37,174.429 299,178.5C 303.127,182.438 306.627,186.105 309.5,189.5C 307.278,189.178 305.444,189.845 304,191.5C 302.549,188.736 300.383,186.736 297.5,185.5C 296.914,185.709 296.414,186.043 296,186.5C 295.648,184.753 295.148,183.086 294.5,181.5C 295.167,181.5 295.833,181.5 296.5,181.5C 295.738,179.738 294.404,178.738 292.5,178.5C 292.5,177.833 292.167,177.5 291.5,177.5C 290.931,174.665 289.264,172.999 286.5,172.5C 286.611,171.883 286.944,171.383 287.5,171C 272.784,148.518 274.451,127.518 292.5,108C 291.944,107.617 291.611,107.117 291.5,106.5C 279.671,114.597 273.671,125.931 273.5,140.5C 273.75,150.789 276.75,160.122 282.5,168.5C 280.876,168.36 279.71,169.027 279,170.5C 279.239,166.816 277.739,164.149 274.5,162.5C 273.201,163.09 272.368,164.09 272,165.5C 271.043,162.621 271.543,160.121 273.5,158C 272.464,156.383 271.297,156.216 270,157.5C 267.815,156.072 265.815,154.405 264,152.5C 263.282,153.451 262.449,153.617 261.5,153C 259.442,150.555 256.942,148.722 254,147.5C 254.127,150.323 253.96,153.323 253.5,156.5C 253.613,158.641 254.28,160.475 255.5,162C 253.707,165.546 253.54,169.046 255,172.5C 255.414,172.043 255.914,171.709 256.5,171.5C 257.893,172.863 259.559,173.696 261.5,174C 258.924,175.122 256.257,176.122 253.5,177C 255.663,177.245 257.33,178.245 258.5,180C 257.521,181.779 257.854,183.445 259.5,185C 258.424,186.726 258.257,188.559 259,190.5C 260.865,192.653 263.365,194.819 266.5,197C 266.043,197.414 265.709,197.914 265.5,198.5C 267.559,199.951 268.559,201.951 268.5,204.5C 269.552,204.351 270.552,204.517 271.5,205C 272.147,206.609 272.98,208.109 274,209.5C 274.333,208.833 274.667,208.167 275,207.5C 275.791,209.604 277.291,210.937 279.5,211.5C 280.706,213.149 282.039,214.649 283.5,216C 283.167,216.333 282.833,216.667 282.5,217C 283.793,217.49 285.127,217.657 286.5,217.5C 285.054,218.613 283.387,218.78 281.5,218C 252.82,198.773 243.32,172.606 253,139.5C 261.038,119.961 275.205,107.294 295.5,101.5C 296.167,102.167 296.833,102.833 297.5,103.5C 302.062,102.219 306.396,100.386 310.5,98C 318.157,96.9452 325.823,95.9452 333.5,95C 336.83,90.3762 340.164,85.7095 343.5,81C 352.483,75.0035 361.483,75.0035 370.5,81C 373.134,83.454 375.134,86.2873 376.5,89.5 Z M 291.5,106.5 C 291.611,107.117 291.944,107.617 292.5,108C 274.451,127.518 272.784,148.518 287.5,171C 286.944,171.383 286.611,171.883 286.5,172.5C 284.833,171.5 283.5,170.167 282.5,168.5C 276.75,160.122 273.75,150.789 273.5,140.5C 273.671,125.931 279.671,114.597 291.5,106.5 Z M 286.5,172.5 C 289.264,172.999 290.931,174.665 291.5,177.5C 289.5,176.167 287.833,174.5 286.5,172.5 Z M 292.5,178.5 C 294.404,178.738 295.738,179.738 296.5,181.5C 295.833,181.5 295.167,181.5 294.5,181.5C 293.833,180.5 293.167,179.5 292.5,178.5 Z"/></g>
<g><path style="opacity:1" fill="#131f2e" d="M 397.5,149.5 C 397.389,148.883 397.056,148.383 396.5,148C 400.415,144.273 403.748,140.773 406.5,137.5C 407.999,135.229 408.999,133.062 409.5,131C 407.5,130.167 405.5,129.333 403.5,128.5C 406.9,126.862 410.234,126.696 413.5,128C 411.314,128.604 411.148,129.77 413,131.5C 414.669,129.831 415.502,127.831 415.5,125.5C 420.511,125.666 425.511,125.499 430.5,125C 430.957,124.586 431.291,124.086 431.5,123.5C 427.556,121.596 427.89,120.596 432.5,120.5C 432.911,117.724 432.078,117.057 430,118.5C 425.572,117.296 421.072,116.463 416.5,116C 420.791,116.208 424.458,114.875 427.5,112C 428.784,111.316 429.951,111.483 431,112.5C 431.5,112 432,111.5 432.5,111C 431.374,107.256 431.207,103.423 432,99.5C 433.017,101.376 433.851,103.376 434.5,105.5C 435.287,104.758 435.953,103.925 436.5,103C 435.167,101.16 435.334,100.66 437,101.5C 437.167,101 437.333,100.5 437.5,100C 436.67,98.5349 436.504,97.0349 437,95.5C 437.605,97.4812 438.605,97.8146 440,96.5C 440.684,95.2161 440.517,94.0495 439.5,93C 442.286,90.9786 441.953,89.4786 438.5,88.5C 438.709,87.914 439.043,87.414 439.5,87C 437.031,84.9782 434.865,85.1449 433,87.5C 432.667,87.1667 432.333,86.8333 432,86.5C 428.176,87.0162 424.51,88.0162 421,89.5C 419.234,88.7665 417.401,88.4332 415.5,88.5C 415.542,90.8489 414.375,92.1822 412,92.5C 408.371,91.5519 404.704,91.5519 401,92.5C 398.719,92.5634 396.886,93.3968 395.5,95C 396.833,95.6667 396.833,96.3333 395.5,97C 398.274,98.7812 401.274,100.115 404.5,101C 405.061,102.676 406.061,104.009 407.5,105C 405.285,105.388 403.952,106.388 403.5,108C 404.366,110.468 405.699,112.968 407.5,115.5C 405.473,115.338 403.473,115.505 401.5,116C 402.308,116.308 402.975,116.808 403.5,117.5C 402.311,118.429 400.978,118.762 399.5,118.5C 399.29,121.97 398.123,121.97 396,118.5C 394.644,119.38 393.144,119.714 391.5,119.5C 391.351,120.552 391.517,121.552 392,122.5C 394.09,125.428 396.59,127.761 399.5,129.5C 396.833,129.5 394.167,129.5 391.5,129.5C 391.649,130.552 391.483,131.552 391,132.5C 388.667,129.833 386.333,129.833 384,132.5C 383.814,134.9 383.314,137.234 382.5,139.5C 381.772,137.807 380.772,136.307 379.5,135C 378.551,134.383 377.718,134.549 377,135.5C 376.676,133.431 375.842,133.098 374.5,134.5C 373.386,135.723 373.219,137.056 374,138.5C 375.745,139.956 377.578,141.289 379.5,142.5C 375.375,145.173 371.542,144.84 368,141.5C 366.865,141.727 365.698,142.06 364.5,142.5C 365.325,143.386 366.325,143.719 367.5,143.5C 367.5,144.833 367.5,146.167 367.5,147.5C 364.728,147.22 362.228,147.887 360,149.5C 358.372,148.903 356.705,149.237 355,150.5C 353.605,149.185 352.605,149.519 352,151.5C 351.033,150.322 350.533,148.989 350.5,147.5C 348.165,147.712 345.665,148.379 343,149.5C 342.5,149 342,148.5 341.5,148C 335.141,147.169 328.807,147.336 322.5,148.5C 319.983,149.029 317.817,150.029 316,151.5C 315.751,154.832 314.918,157.999 313.5,161C 314.667,163.167 315.833,165.333 317,167.5C 318.044,166.377 318.71,165.044 319,163.5C 319.251,165.433 319.751,167.266 320.5,169C 323.833,169.333 327.167,169.667 330.5,170C 328.833,170.333 327.167,170.667 325.5,171C 327.891,171.287 330.224,171.787 332.5,172.5C 335.068,170.283 338.068,169.116 341.5,169C 340.112,168.111 340.278,167.611 342,167.5C 344.478,168.245 346.978,168.911 349.5,169.5C 351.805,168.663 354.138,168.496 356.5,169C 354.326,167.736 354.66,166.569 357.5,165.5C 359.972,166.992 362.639,167.658 365.5,167.5C 365.5,166.167 365.5,164.833 365.5,163.5C 361.287,160.934 356.62,159.268 351.5,158.5C 350.833,157.833 350.167,157.167 349.5,156.5C 355.463,155.504 361.463,155.171 367.5,155.5C 367.22,158.388 368.553,159.888 371.5,160C 370.109,161.02 368.609,161.853 367,162.5C 366.146,164.607 366.812,165.941 369,166.5C 371.105,165.227 373.105,164.227 375,163.5C 377.719,164.477 379.719,163.477 381,160.5C 381.333,160.833 381.667,161.167 382,161.5C 383.149,157.987 385.649,155.987 389.5,155.5C 390.512,152.662 392.512,151.329 395.5,151.5C 391.318,156.846 386.318,161.346 380.5,165C 383.744,165.086 386.744,164.253 389.5,162.5C 388.199,164.672 387.199,167.005 386.5,169.5C 384.799,169.966 383.299,169.966 382,169.5C 380.5,170.667 379,171.833 377.5,173C 378.167,173.333 378.833,173.667 379.5,174C 377.913,174.862 376.246,175.529 374.5,176C 376.286,176.785 377.786,177.951 379,179.5C 379.333,179.167 379.667,178.833 380,178.5C 381.713,179.878 383.047,181.545 384,183.5C 384.414,183.043 384.914,182.709 385.5,182.5C 388.096,183.482 390.762,184.149 393.5,184.5C 394.197,188.897 395.197,193.231 396.5,197.5C 393.703,195.205 391.036,192.705 388.5,190C 387.833,189.333 387.167,189.333 386.5,190C 400.709,203.032 406.375,218.865 403.5,237.5C 403.666,232.821 403.499,228.155 403,223.5C 402.667,223.833 402.333,224.167 402,224.5C 400.935,219.564 398.268,215.898 394,213.5C 391.965,216.127 389.798,217.794 387.5,218.5C 389.219,210.244 388.386,202.244 385,194.5C 381.905,191.238 379.405,187.572 377.5,183.5C 371.498,180.582 365.165,178.749 358.5,178C 348.31,177.227 338.143,177.394 328,178.5C 311.623,176.081 306.289,167.081 312,151.5C 315.111,148.056 318.944,145.889 323.5,145C 332.167,144.667 340.833,144.333 349.5,144C 352.529,143.461 355.529,142.794 358.5,142C 362.167,139.667 365.833,137.333 369.5,135C 379.86,124.973 390.193,114.973 400.5,105C 396.318,100.985 392.318,96.8183 388.5,92.5C 406.017,88.6639 423.683,85.3306 441.5,82.5C 442.5,82.8333 443.5,83.1667 444.5,83.5C 441.819,100.777 438.819,118.443 435.5,136.5C 433.692,136.509 432.025,136.009 430.5,135C 427.625,131.956 424.625,129.123 421.5,126.5C 413.711,134.439 405.711,142.106 397.5,149.5 Z"/></g>
<g><path style="opacity:1" fill="#091830" d="M 406.5,137.5 C 405.778,137.082 405.278,136.416 405,135.5C 404.259,136.641 403.425,136.641 402.5,135.5C 401.473,133.447 400.473,131.447 399.5,129.5C 396.59,127.761 394.09,125.428 392,122.5C 391.517,121.552 391.351,120.552 391.5,119.5C 393.144,119.714 394.644,119.38 396,118.5C 398.123,121.97 399.29,121.97 399.5,118.5C 400.978,118.762 402.311,118.429 403.5,117.5C 402.975,116.808 402.308,116.308 401.5,116C 403.473,115.505 405.473,115.338 407.5,115.5C 405.699,112.968 404.366,110.468 403.5,108C 403.952,106.388 405.285,105.388 407.5,105C 406.061,104.009 405.061,102.676 404.5,101C 401.274,100.115 398.274,98.7812 395.5,97C 396.833,96.3333 396.833,95.6667 395.5,95C 396.886,93.3968 398.719,92.5634 401,92.5C 404.704,91.5519 408.371,91.5519 412,92.5C 414.375,92.1822 415.542,90.8489 415.5,88.5C 417.401,88.4332 419.234,88.7665 421,89.5C 424.51,88.0162 428.176,87.0162 432,86.5C 432.333,86.8333 432.667,87.1667 433,87.5C 434.865,85.1449 437.031,84.9782 439.5,87C 439.043,87.414 438.709,87.914 438.5,88.5C 441.953,89.4786 442.286,90.9786 439.5,93C 440.517,94.0495 440.684,95.2161 440,96.5C 438.605,97.8146 437.605,97.4812 437,95.5C 436.504,97.0349 436.67,98.5349 437.5,100C 437.333,100.5 437.167,101 437,101.5C 435.334,100.66 435.167,101.16 436.5,103C 435.953,103.925 435.287,104.758 434.5,105.5C 433.851,103.376 433.017,101.376 432,99.5C 431.207,103.423 431.374,107.256 432.5,111C 432,111.5 431.5,112 431,112.5C 429.951,111.483 428.784,111.316 427.5,112C 424.458,114.875 420.791,116.208 416.5,116C 421.072,116.463 425.572,117.296 430,118.5C 432.078,117.057 432.911,117.724 432.5,120.5C 427.89,120.596 427.556,121.596 431.5,123.5C 431.291,124.086 430.957,124.586 430.5,125C 425.511,125.499 420.511,125.666 415.5,125.5C 415.502,127.831 414.669,129.831 413,131.5C 411.148,129.77 411.314,128.604 413.5,128C 410.234,126.696 406.9,126.862 403.5,128.5C 405.5,129.333 407.5,130.167 409.5,131C 408.999,133.062 407.999,135.229 406.5,137.5 Z"/></g>
<g><path style="opacity:1" fill="#0d1b2f" d="M 376.5,90.5 C 377.669,94.0277 378.335,97.5277 378.5,101C 376.449,107.774 373.115,113.774 368.5,119C 364.328,122.499 359.662,125.166 354.5,127C 342.854,129.312 331.188,130.312 319.5,130C 301.549,135.469 293.216,147.636 294.5,166.5C 294.53,167.497 294.03,168.164 293,168.5C 289.93,167.924 287.263,166.591 285,164.5C 284.082,161.937 284.582,159.77 286.5,158C 285.833,157.667 285.167,157.333 284.5,157C 285.833,156.333 285.833,155.667 284.5,155C 285.167,154.667 285.833,154.333 286.5,154C 285.167,153.667 283.833,153.333 282.5,153C 283.059,152.275 283.392,151.442 283.5,150.5C 281.428,146.407 281.428,142.073 283.5,137.5C 282.833,135.043 283.833,133.043 286.5,131.5C 287.768,132.428 289.101,132.595 290.5,132C 287.268,129.826 285.435,126.992 285,123.5C 286.016,124.634 286.683,124.301 287,122.5C 287.471,124.246 288.138,125.913 289,127.5C 290.299,127.034 291.799,127.034 293.5,127.5C 293.33,128.822 293.663,129.989 294.5,131C 297.449,131.847 299.782,131.014 301.5,128.5C 297.027,124.431 297.694,122.764 303.5,123.5C 303.351,122.448 303.517,121.448 304,120.5C 309.514,118.546 311.68,114.88 310.5,109.5C 311.738,109.19 311.738,108.69 310.5,108C 312.769,107.242 314.936,107.409 317,108.5C 319.496,105.023 321.663,105.023 323.5,108.5C 322.833,109.167 322.167,109.833 321.5,110.5C 326.076,111.908 330.742,112.574 335.5,112.5C 335.5,113.5 335.5,114.5 335.5,115.5C 327.03,114.723 319.03,116.223 311.5,120C 314.558,121.218 317.224,123.051 319.5,125.5C 320.506,125.062 320.506,124.396 319.5,123.5C 327.911,123.125 336.078,122.125 344,120.5C 344.388,121.428 345.055,122.095 346,122.5C 347.567,121.144 349.4,120.477 351.5,120.5C 351.579,119.07 351.246,117.736 350.5,116.5C 350.887,115.28 351.72,114.613 353,114.5C 356.432,115.489 356.932,116.989 354.5,119C 354.381,120.281 354.881,121.448 356,122.5C 359.263,120.453 362.763,118.786 366.5,117.5C 367.277,115.461 368.443,114.795 370,115.5C 371.833,109.167 373.667,102.834 375.5,96.5C 374.968,94.2589 373.635,92.7589 371.5,92C 373.226,90.6776 374.893,90.1776 376.5,90.5 Z"/></g>
<g><path style="opacity:1" fill="#071830" d="M 399.5,129.5 C 400.473,131.447 401.473,133.447 402.5,135.5C 403.425,136.641 404.259,136.641 405,135.5C 405.278,136.416 405.778,137.082 406.5,137.5C 403.748,140.773 400.415,144.273 396.5,148C 397.056,148.383 397.389,148.883 397.5,149.5C 397.167,150.5 396.5,151.167 395.5,151.5C 392.512,151.329 390.512,152.662 389.5,155.5C 385.649,155.987 383.149,157.987 382,161.5C 381.667,161.167 381.333,160.833 381,160.5C 379.719,163.477 377.719,164.477 375,163.5C 373.105,164.227 371.105,165.227 369,166.5C 366.812,165.941 366.146,164.607 367,162.5C 368.609,161.853 370.109,161.02 371.5,160C 368.553,159.888 367.22,158.388 367.5,155.5C 361.463,155.171 355.463,155.504 349.5,156.5C 350.167,157.167 350.833,157.833 351.5,158.5C 356.62,159.268 361.287,160.934 365.5,163.5C 365.5,164.833 365.5,166.167 365.5,167.5C 362.639,167.658 359.972,166.992 357.5,165.5C 354.66,166.569 354.326,167.736 356.5,169C 354.138,168.496 351.805,168.663 349.5,169.5C 346.978,168.911 344.478,168.245 342,167.5C 340.278,167.611 340.112,168.111 341.5,169C 338.068,169.116 335.068,170.283 332.5,172.5C 330.224,171.787 327.891,171.287 325.5,171C 327.167,170.667 328.833,170.333 330.5,170C 327.167,169.667 323.833,169.333 320.5,169C 319.751,167.266 319.251,165.433 319,163.5C 318.71,165.044 318.044,166.377 317,167.5C 315.833,165.333 314.667,163.167 313.5,161C 314.918,157.999 315.751,154.832 316,151.5C 317.817,150.029 319.983,149.029 322.5,148.5C 328.807,147.336 335.141,147.169 341.5,148C 342,148.5 342.5,149 343,149.5C 345.665,148.379 348.165,147.712 350.5,147.5C 350.533,148.989 351.033,150.322 352,151.5C 352.605,149.519 353.605,149.185 355,150.5C 356.705,149.237 358.372,148.903 360,149.5C 362.228,147.887 364.728,147.22 367.5,147.5C 367.5,146.167 367.5,144.833 367.5,143.5C 366.325,143.719 365.325,143.386 364.5,142.5C 365.698,142.06 366.865,141.727 368,141.5C 371.542,144.84 375.375,145.173 379.5,142.5C 377.578,141.289 375.745,139.956 374,138.5C 373.219,137.056 373.386,135.723 374.5,134.5C 375.842,133.098 376.676,133.431 377,135.5C 377.718,134.549 378.551,134.383 379.5,135C 380.772,136.307 381.772,137.807 382.5,139.5C 383.314,137.234 383.814,134.9 384,132.5C 386.333,129.833 388.667,129.833 391,132.5C 391.483,131.552 391.649,130.552 391.5,129.5C 394.167,129.5 396.833,129.5 399.5,129.5 Z"/></g>
<g><path style="opacity:1" fill="#071930" d="M 396.5,197.5 C 395.197,193.231 394.197,188.897 393.5,184.5C 390.762,184.149 388.096,183.482 385.5,182.5C 384.914,182.709 384.414,183.043 384,183.5C 383.047,181.545 381.713,179.878 380,178.5C 379.667,178.833 379.333,179.167 379,179.5C 377.786,177.951 376.286,176.785 374.5,176C 376.246,175.529 377.913,174.862 379.5,174C 378.833,173.667 378.167,173.333 377.5,173C 379,171.833 380.5,170.667 382,169.5C 383.299,169.966 384.799,169.966 386.5,169.5C 387.199,167.005 388.199,164.672 389.5,162.5C 391.638,162.703 393.305,163.703 394.5,165.5C 396.053,163.735 396.386,161.902 395.5,160C 398.8,160.046 402.134,160.212 405.5,160.5C 406.481,165.322 409.148,167.989 413.5,168.5C 414.386,169.325 414.719,170.325 414.5,171.5C 416.76,172.139 418.76,173.306 420.5,175C 418.842,175.725 418.342,176.892 419,178.5C 420.947,180.236 422.781,182.07 424.5,184C 422.833,186.167 421.167,188.333 419.5,190.5C 420.628,191.262 421.795,191.929 423,192.5C 423.36,194.421 424.194,196.088 425.5,197.5C 424.068,197.585 422.735,198.585 421.5,200.5C 424.004,201.184 426.671,202.184 429.5,203.5C 429.82,206.898 429.487,210.232 428.5,213.5C 427.519,209.179 424.853,207.179 420.5,207.5C 420.297,209.39 420.963,210.89 422.5,212C 423.744,212.456 424.577,211.956 425,210.5C 425.273,212.101 425.773,213.601 426.5,215C 424.939,215.318 423.772,216.151 423,217.5C 421.688,215.342 420.022,215.009 418,216.5C 418.349,220.873 418.182,225.206 417.5,229.5C 420.26,228.431 423.093,227.431 426,226.5C 426.667,227.833 426.667,229.167 426,230.5C 425.667,230.167 425.333,229.833 425,229.5C 423.89,231.397 423.724,233.23 424.5,235C 423.833,235.167 423.167,235.333 422.5,235.5C 420.87,234.579 419.203,233.745 417.5,233C 417.124,231.16 415.957,229.327 414,227.5C 413.333,228.833 412.667,230.167 412,231.5C 411.333,228.167 411.333,224.833 412,221.5C 412.5,221 413,220.5 413.5,220C 411.288,218.299 410.621,216.299 411.5,214C 409.799,212.14 408.799,209.973 408.5,207.5C 410.167,207.5 411.833,207.5 413.5,207.5C 413.672,205.508 413.005,203.842 411.5,202.5C 413.466,199.451 413.966,196.118 413,192.5C 411.667,191.833 410.333,191.167 409,190.5C 408.13,191.108 407.63,191.941 407.5,193C 408.726,196.402 409.393,199.902 409.5,203.5C 406.95,203.439 405.45,202.106 405,199.5C 404.667,200.167 404.333,200.833 404,201.5C 403.101,199.484 401.767,197.817 400,196.5C 399.047,198.373 397.88,198.706 396.5,197.5 Z"/></g>
<g><path style="opacity:1" fill="#081930" d="M 282.5,168.5 C 283.5,170.167 284.833,171.5 286.5,172.5C 287.833,174.5 289.5,176.167 291.5,177.5C 292.167,177.5 292.5,177.833 292.5,178.5C 293.167,179.5 293.833,180.5 294.5,181.5C 295.148,183.086 295.648,184.753 296,186.5C 296.414,186.043 296.914,185.709 297.5,185.5C 300.383,186.736 302.549,188.736 304,191.5C 305.444,189.845 307.278,189.178 309.5,189.5C 310.183,191.176 311.517,191.843 313.5,191.5C 313.657,192.873 313.49,194.207 313,195.5C 312.086,194.346 311.253,194.513 310.5,196C 312.481,196.605 312.815,197.605 311.5,199C 310.451,199.492 309.451,199.326 308.5,198.5C 304.872,200.502 301.205,201.669 297.5,202C 298.167,202.667 298.833,203.333 299.5,204C 297.667,205.167 296.167,206.667 295,208.5C 293.467,208.056 291.967,207.723 290.5,207.5C 289.833,204.167 289.167,200.833 288.5,197.5C 287.767,201.174 287.101,204.841 286.5,208.5C 287.025,209.192 287.692,209.692 288.5,210C 288.112,211.525 288.112,213.192 288.5,215C 287.619,215.708 286.953,216.542 286.5,217.5C 285.127,217.657 283.793,217.49 282.5,217C 282.833,216.667 283.167,216.333 283.5,216C 282.039,214.649 280.706,213.149 279.5,211.5C 277.291,210.937 275.791,209.604 275,207.5C 274.667,208.167 274.333,208.833 274,209.5C 272.98,208.109 272.147,206.609 271.5,205C 270.552,204.517 269.552,204.351 268.5,204.5C 268.559,201.951 267.559,199.951 265.5,198.5C 265.709,197.914 266.043,197.414 266.5,197C 263.365,194.819 260.865,192.653 259,190.5C 258.257,188.559 258.424,186.726 259.5,185C 257.854,183.445 257.521,181.779 258.5,180C 257.33,178.245 255.663,177.245 253.5,177C 256.257,176.122 258.924,175.122 261.5,174C 259.559,173.696 257.893,172.863 256.5,171.5C 255.914,171.709 255.414,172.043 255,172.5C 253.54,169.046 253.707,165.546 255.5,162C 254.28,160.475 253.613,158.641 253.5,156.5C 253.96,153.323 254.127,150.323 254,147.5C 256.942,148.722 259.442,150.555 261.5,153C 262.449,153.617 263.282,153.451 264,152.5C 265.815,154.405 267.815,156.072 270,157.5C 271.297,156.216 272.464,156.383 273.5,158C 271.543,160.121 271.043,162.621 272,165.5C 272.368,164.09 273.201,163.09 274.5,162.5C 277.739,164.149 279.239,166.816 279,170.5C 279.71,169.027 280.876,168.36 282.5,168.5 Z"/></g>
<g><path style="opacity:1" fill="#0e1c2c" d="M 309.5,189.5 C 313.404,190.95 317.404,192.116 321.5,193C 335.167,193.333 348.833,193.667 362.5,194C 374.119,199.995 376.619,208.829 370,220.5C 367.749,222.377 365.249,223.877 362.5,225C 352.784,225.141 343.117,225.807 333.5,227C 328.481,228.547 323.815,230.713 319.5,233.5C 311.42,242.583 302.753,250.916 293.5,258.5C 292.325,258.719 291.325,258.386 290.5,257.5C 296.169,252.83 295.169,250.83 287.5,251.5C 287.833,254.5 286.5,255.833 283.5,255.5C 284.864,251.455 286.197,247.455 287.5,243.5C 288.833,243.5 290.167,243.5 291.5,243.5C 291.201,245.604 291.534,247.604 292.5,249.5C 293.167,248.833 293.833,248.167 294.5,247.5C 296.378,247.623 298.211,247.623 300,247.5C 301.022,246.646 301.855,245.646 302.5,244.5C 298.092,243.27 293.759,241.77 289.5,240C 290.448,239.517 291.448,239.351 292.5,239.5C 292.409,235.46 291.242,231.793 289,228.5C 288.641,231.544 287.974,231.878 287,229.5C 285.513,230.155 284.347,231.155 283.5,232.5C 284.641,233.425 284.641,234.259 283.5,235C 285.081,235.707 286.581,236.54 288,237.5C 288.333,236.833 288.667,236.167 289,235.5C 289.749,236.635 289.583,237.635 288.5,238.5C 285.576,238.626 282.909,239.959 280.5,242.5C 276.108,241.349 272.441,242.515 269.5,246C 268.987,247.576 269.654,248.909 271.5,250C 270.708,251.96 269.375,253.46 267.5,254.5C 268.017,261.168 269.35,267.668 271.5,274C 271.045,275.724 270.212,277.224 269,278.5C 267.992,276.741 266.492,275.574 264.5,275C 267.431,269.236 268.264,263.069 267,256.5C 265.842,256.002 265.009,255.169 264.5,254C 265.079,251.946 265.412,249.946 265.5,248C 263.676,245.774 261.843,244.274 260,243.5C 258.112,244.02 256.779,245.686 256,248.5C 255.691,247.234 255.191,246.067 254.5,245C 258.378,242.867 258.378,242.034 254.5,242.5C 253.878,245.37 253.211,248.204 252.5,251C 253.125,253.8 253.792,256.634 254.5,259.5C 255.799,258.91 256.632,257.91 257,256.5C 257.167,257.667 257.333,258.833 257.5,260C 256.909,262.239 256.242,264.406 255.5,266.5C 256.822,266.67 257.989,266.337 259,265.5C 259.667,267.167 259.667,268.833 259,270.5C 256.502,271.598 254.002,271.432 251.5,270C 254.544,269.641 254.878,268.974 252.5,268C 254.784,266.637 254.951,265.137 253,263.5C 251.426,264.984 250.093,266.651 249,268.5C 248.722,267.584 248.222,266.918 247.5,266.5C 248.232,258.11 249.398,249.776 251,241.5C 251.27,238.638 252.104,235.972 253.5,233.5C 257.432,236.929 261.265,240.596 265,244.5C 276.778,233.724 288.278,222.557 299.5,211C 302.32,210.264 304.32,208.598 305.5,206C 304.833,205.333 304.167,205.333 303.5,206C 297.661,209.689 291.994,213.522 286.5,217.5C 286.953,216.542 287.619,215.708 288.5,215C 288.112,213.192 288.112,211.525 288.5,210C 287.692,209.692 287.025,209.192 286.5,208.5C 287.101,204.841 287.767,201.174 288.5,197.5C 289.167,200.833 289.833,204.167 290.5,207.5C 291.967,207.723 293.467,208.056 295,208.5C 296.167,206.667 297.667,205.167 299.5,204C 298.833,203.333 298.167,202.667 297.5,202C 301.205,201.669 304.872,200.502 308.5,198.5C 309.451,199.326 310.451,199.492 311.5,199C 312.815,197.605 312.481,196.605 310.5,196C 311.253,194.513 312.086,194.346 313,195.5C 313.49,194.207 313.657,192.873 313.5,191.5C 311.517,191.843 310.183,191.176 309.5,189.5 Z"/></g>
<g><path style="opacity:1" fill="#061831" d="M 319.5,233.5 C 318.735,233.077 317.902,232.743 317,232.5C 315.629,233.581 314.129,234.415 312.5,235C 310.974,238.011 308.308,240.511 304.5,242.5C 302.335,240.296 299.668,238.962 296.5,238.5C 295.489,231.247 294.822,224.247 294.5,217.5C 295.822,217.67 296.989,217.337 298,216.5C 298.973,218.64 300.473,220.307 302.5,221.5C 303.971,220.619 304.804,219.286 305,217.5C 305.308,218.308 305.808,218.975 306.5,219.5C 308.185,217.983 309.685,216.316 311,214.5C 311.414,214.957 311.914,215.291 312.5,215.5C 313.833,213.5 313.833,211.5 312.5,209.5C 311.391,210.59 310.391,210.59 309.5,209.5C 310.167,209.167 310.833,208.833 311.5,208.5C 314.435,206.952 317.269,205.952 320,205.5C 321.016,206.634 321.683,206.301 322,204.5C 322.308,205.308 322.808,205.975 323.5,206.5C 327.429,205.567 331.429,205.234 335.5,205.5C 335.5,207.5 335.5,209.5 335.5,211.5C 336.822,211.67 337.989,211.337 339,210.5C 339.301,207.493 339.135,204.493 338.5,201.5C 336.857,201.48 335.524,202.147 334.5,203.5C 333.406,202.132 333.74,200.965 335.5,200C 339.26,197.959 342.927,198.126 346.5,200.5C 346.167,202.5 345.833,204.5 345.5,206.5C 350.651,208.549 355.984,210.216 361.5,211.5C 362.786,211.148 363.619,210.482 364,209.5C 365.5,210 367,210.5 368.5,211C 367.167,211.667 367.167,212.333 368.5,213C 367.833,214.333 366.833,215.333 365.5,216C 366.167,216.333 366.833,216.667 367.5,217C 366.234,217.309 365.067,217.809 364,218.5C 363.333,215.833 362.667,215.833 362,218.5C 361.517,217.552 361.351,216.552 361.5,215.5C 360.022,215.762 358.689,215.429 357.5,214.5C 358.025,213.808 358.692,213.308 359.5,213C 356.813,212.463 354.313,212.963 352,214.5C 349.205,213.217 346.372,213.217 343.5,214.5C 347.88,219.884 346.546,221.551 339.5,219.5C 336.102,220.104 332.769,220.937 329.5,222C 328.789,223.255 327.956,224.421 327,225.5C 325.887,224.289 324.72,224.289 323.5,225.5C 322.269,226.651 322.269,227.817 323.5,229C 322.011,230.468 320.677,231.968 319.5,233.5 Z"/></g>
<g><path style="opacity:1" fill="#121e2d" d="M 386.5,267.5 C 386.5,266.833 386.833,266.5 387.5,266.5C 398.069,261.431 404.903,253.098 408,241.5C 408.667,234.167 408.667,226.833 408,219.5C 407.197,216.756 406.197,214.089 405,211.5C 404.25,210.874 403.416,210.374 402.5,210C 402.833,209.667 403.167,209.333 403.5,209C 401.521,204.861 399.188,201.028 396.5,197.5C 397.88,198.706 399.047,198.373 400,196.5C 401.767,197.817 403.101,199.484 404,201.5C 404.333,200.833 404.667,200.167 405,199.5C 405.45,202.106 406.95,203.439 409.5,203.5C 409.393,199.902 408.726,196.402 407.5,193C 407.63,191.941 408.13,191.108 409,190.5C 410.333,191.167 411.667,191.833 413,192.5C 413.966,196.118 413.466,199.451 411.5,202.5C 413.005,203.842 413.672,205.508 413.5,207.5C 411.833,207.5 410.167,207.5 408.5,207.5C 408.799,209.973 409.799,212.14 411.5,214C 410.621,216.299 411.288,218.299 413.5,220C 413,220.5 412.5,221 412,221.5C 411.333,224.833 411.333,228.167 412,231.5C 412.667,230.167 413.333,228.833 414,227.5C 415.957,229.327 417.124,231.16 417.5,233C 419.203,233.745 420.87,234.579 422.5,235.5C 423.167,235.333 423.833,235.167 424.5,235C 423.724,233.23 423.89,231.397 425,229.5C 425.333,229.833 425.667,230.167 426,230.5C 426.667,229.167 426.667,227.833 426,226.5C 423.093,227.431 420.26,228.431 417.5,229.5C 418.182,225.206 418.349,220.873 418,216.5C 420.022,215.009 421.688,215.342 423,217.5C 423.772,216.151 424.939,215.318 426.5,215C 425.773,213.601 425.273,212.101 425,210.5C 424.577,211.956 423.744,212.456 422.5,212C 420.963,210.89 420.297,209.39 420.5,207.5C 424.853,207.179 427.519,209.179 428.5,213.5C 429.487,210.232 429.82,206.898 429.5,203.5C 426.671,202.184 424.004,201.184 421.5,200.5C 422.735,198.585 424.068,197.585 425.5,197.5C 424.194,196.088 423.36,194.421 423,192.5C 421.795,191.929 420.628,191.262 419.5,190.5C 421.167,188.333 422.833,186.167 424.5,184C 422.781,182.07 420.947,180.236 419,178.5C 418.342,176.892 418.842,175.725 420.5,175C 418.76,173.306 416.76,172.139 414.5,171.5C 414.719,170.325 414.386,169.325 413.5,168.5C 409.148,167.989 406.481,165.322 405.5,160.5C 402.134,160.212 398.8,160.046 395.5,160C 396.386,161.902 396.053,163.735 394.5,165.5C 393.305,163.703 391.638,162.703 389.5,162.5C 393.136,158.632 396.969,155.632 401,153.5C 427.83,170.485 438.163,194.485 432,225.5C 429.566,232.487 426.566,239.154 423,245.5C 413.587,257.05 401.754,265.384 387.5,270.5C 386.614,269.675 386.281,268.675 386.5,267.5 Z"/></g>
<g><path style="opacity:1" fill="#111e2e" d="M 403.5,237.5 C 402.123,248.759 396.79,257.592 387.5,264C 388.598,264.77 388.598,265.603 387.5,266.5C 386.833,266.5 386.5,266.833 386.5,267.5C 376.601,271.516 366.268,274.016 355.5,275C 352.013,277.227 349.68,280.394 348.5,284.5C 334.824,296.221 322.657,294.888 312,280.5C 310.826,272.891 311.493,265.558 314,258.5C 325.359,243.507 340.526,237.673 359.5,241C 370.05,239.182 378.216,234.349 384,226.5C 385.076,223.763 386.243,221.096 387.5,218.5C 389.798,217.794 391.965,216.127 394,213.5C 398.268,215.898 400.935,219.564 402,224.5C 402.333,224.167 402.667,223.833 403,223.5C 403.499,228.155 403.666,232.821 403.5,237.5 Z"/></g>
<g><path style="opacity:1" fill="#0c1b31" d="M 293.5,258.5 C 291.821,261.195 289.821,263.695 287.5,266C 290.484,269.264 293.651,272.43 297,275.5C 297.749,276.635 297.583,277.635 296.5,278.5C 279.345,282.731 262.012,286.064 244.5,288.5C 244.585,280.909 245.585,273.576 247.5,266.5C 248.222,266.918 248.722,267.584 249,268.5C 250.093,266.651 251.426,264.984 253,263.5C 254.951,265.137 254.784,266.637 252.5,268C 254.878,268.974 254.544,269.641 251.5,270C 254.002,271.432 256.502,271.598 259,270.5C 259.667,268.833 259.667,267.167 259,265.5C 257.989,266.337 256.822,266.67 255.5,266.5C 256.242,264.406 256.909,262.239 257.5,260C 257.333,258.833 257.167,257.667 257,256.5C 256.632,257.91 255.799,258.91 254.5,259.5C 253.792,256.634 253.125,253.8 252.5,251C 253.211,248.204 253.878,245.37 254.5,242.5C 258.378,242.034 258.378,242.867 254.5,245C 255.191,246.067 255.691,247.234 256,248.5C 256.779,245.686 258.112,244.02 260,243.5C 261.843,244.274 263.676,245.774 265.5,248C 265.412,249.946 265.079,251.946 264.5,254C 265.009,255.169 265.842,256.002 267,256.5C 268.264,263.069 267.431,269.236 264.5,275C 266.492,275.574 267.992,276.741 269,278.5C 270.212,277.224 271.045,275.724 271.5,274C 269.35,267.668 268.017,261.168 267.5,254.5C 269.375,253.46 270.708,251.96 271.5,250C 269.654,248.909 268.987,247.576 269.5,246C 272.441,242.515 276.108,241.349 280.5,242.5C 282.909,239.959 285.576,238.626 288.5,238.5C 289.583,237.635 289.749,236.635 289,235.5C 288.667,236.167 288.333,236.833 288,237.5C 286.581,236.54 285.081,235.707 283.5,235C 284.641,234.259 284.641,233.425 283.5,232.5C 284.347,231.155 285.513,230.155 287,229.5C 287.974,231.878 288.641,231.544 289,228.5C 291.242,231.793 292.409,235.46 292.5,239.5C 291.448,239.351 290.448,239.517 289.5,240C 293.759,241.77 298.092,243.27 302.5,244.5C 301.855,245.646 301.022,246.646 300,247.5C 298.211,247.623 296.378,247.623 294.5,247.5C 293.833,248.167 293.167,248.833 292.5,249.5C 291.534,247.604 291.201,245.604 291.5,243.5C 290.167,243.5 288.833,243.5 287.5,243.5C 286.197,247.455 284.864,251.455 283.5,255.5C 286.5,255.833 287.833,254.5 287.5,251.5C 295.169,250.83 296.169,252.83 290.5,257.5C 291.325,258.386 292.325,258.719 293.5,258.5 Z"/></g>
<g><path style="opacity:1" fill="#071831" d="M 384.5,229.5 C 386.456,231.897 388.29,231.897 390,229.5C 393.339,230.379 396.339,232.379 399,235.5C 399.667,237.5 399.667,239.5 399,241.5C 396.913,242.834 395.413,244.667 394.5,247C 394.963,249.796 394.963,252.629 394.5,255.5C 392.473,255.662 390.473,255.495 388.5,255C 387.663,253.989 387.33,252.822 387.5,251.5C 385.43,251.551 383.597,250.885 382,249.5C 380.715,249.95 379.548,250.617 378.5,251.5C 377.167,248.833 375.833,248.833 374.5,251.5C 373.5,250.833 372.5,250.167 371.5,249.5C 368.815,252.305 367.148,251.638 366.5,247.5C 361.761,248.303 357.594,249.637 354,251.5C 349.643,248.867 345.476,249.2 341.5,252.5C 343.193,254.027 345.027,255.36 347,256.5C 355.061,255.916 363.394,255.249 372,254.5C 375.667,255.26 376.167,256.76 373.5,259C 371.527,259.495 369.527,259.662 367.5,259.5C 367.281,260.675 367.614,261.675 368.5,262.5C 371.438,261.425 374.438,261.259 377.5,262C 376.788,263.425 376.621,264.925 377,266.5C 376.586,266.957 376.086,267.291 375.5,267.5C 374.11,265.797 372.61,265.13 371,265.5C 370.641,268.544 369.974,268.878 369,266.5C 365.872,266.372 362.706,266.372 359.5,266.5C 361.554,268.194 363.888,269.361 366.5,270C 359.151,268.56 352.818,270.56 347.5,276C 347.833,276.333 348.167,276.667 348.5,277C 346.877,279.08 345.377,281.246 344,283.5C 342.933,282.809 341.766,282.309 340.5,282C 340.833,281.667 341.167,281.333 341.5,281C 340.572,280.612 339.905,279.945 339.5,279C 340.52,276.974 342.187,275.641 344.5,275C 344.167,274.667 343.833,274.333 343.5,274C 344.784,273.316 345.951,273.483 347,274.5C 347.667,273.5 347.667,272.5 347,271.5C 344.712,271.737 342.212,271.737 339.5,271.5C 338.897,274.625 337.563,277.459 335.5,280C 337.136,281.434 338.136,283.267 338.5,285.5C 337.758,286.287 336.925,286.953 336,287.5C 333.28,284.097 330.28,283.763 327,286.5C 325.097,284.559 324.264,282.226 324.5,279.5C 322.549,279.227 321.049,279.893 320,281.5C 319.044,280.421 318.211,279.255 317.5,278C 319.045,276.178 319.712,274.011 319.5,271.5C 319.333,269.833 319.167,268.167 319,266.5C 318.086,267.654 317.253,267.487 316.5,266C 317.416,265.626 318.25,265.126 319,264.5C 324.407,265.473 329.907,265.807 335.5,265.5C 335.665,261.818 335.499,258.152 335,254.5C 334.667,254.167 334.333,253.833 334,253.5C 332.556,255.155 330.722,255.822 328.5,255.5C 328.664,258.187 328.497,260.854 328,263.5C 327.503,257.12 326.336,257.12 324.5,263.5C 324.167,263 323.833,262.5 323.5,262C 324.472,259.889 325.305,257.722 326,255.5C 327.44,253.954 329.273,253.121 331.5,253C 329.007,251.417 329.174,249.917 332,248.5C 335.262,249.841 335.762,249.508 333.5,247.5C 333.977,246.522 334.643,245.689 335.5,245C 343.856,246.492 352.023,247.326 360,247.5C 360.739,246.426 361.739,245.759 363,245.5C 364.422,246.205 365.755,246.539 367,246.5C 367.494,244.866 367.66,243.199 367.5,241.5C 372.414,242.016 377.414,241.849 382.5,241C 381.833,240.333 381.167,239.667 380.5,239C 381.981,238.02 383.315,236.853 384.5,235.5C 383.377,233.518 383.377,231.518 384.5,229.5 Z"/></g>
</svg>
